<svg width="67" height="62" viewBox="0 0 67 62" fill="none" xmlns="http://www.w3.org/2000/svg">
<path d="M25.2297 0.683701C23.6594 1.023 20.4141 2.23478 17.9016 3.34962C11.4633 6.30638 6.7 10.8142 3.50703 16.9701C0.680469 22.3504 0 25.1617 0 30.9783C0 36.7949 0.680469 39.6062 3.50703 44.9865C6.80469 51.3363 11.5156 55.6987 18.3727 58.7524C24.1828 61.3699 27.2188 62 33.5 62C39.7812 62 42.8172 61.3699 48.6273 58.7524C52.5531 57.0074 54.2805 55.8926 57.3164 53.0328C60.4047 50.2215 61.6086 48.6219 63.493 44.9865C66.3195 39.6062 67 36.7949 67 30.9783C67 25.1617 66.3195 22.3504 63.493 16.9701C60.1953 10.6203 55.4844 6.25791 48.6273 3.20421C45.9055 1.99243 42.4508 0.780643 40.9328 0.489815C37.2687 -0.237255 28.6844 -0.140312 25.2297 0.683701ZM40.3047 5.87014C47.1094 7.42122 55.0133 13.1408 58.0492 18.812C63.9117 29.5242 62.0273 40.8665 53.0766 49.1066C47.5281 54.293 41.1422 56.7651 33.5 56.7651C25.8578 56.7651 19.4719 54.293 13.9234 49.1066C2.82656 38.8792 2.82656 23.0775 13.9234 12.85C21.1469 6.16096 30.5687 3.64045 40.3047 5.87014Z" fill="#9D9D9D"/>
<path d="M32.4531 16.2915C31.0922 16.7762 30.8828 17.5517 30.8828 22.8351V28.07H25.1773C18.9484 28.07 17.7969 28.5063 17.7969 30.736C17.7969 32.9656 18.9484 33.4019 25.1773 33.4019H30.8828V38.9761C30.8828 44.4534 30.8828 44.5988 32.1914 45.132C33.1859 45.5197 33.8141 45.5197 34.8086 45.132C36.1172 44.5988 36.1172 44.4534 36.1172 38.9761V33.4019H41.8227C48.0516 33.4019 49.2031 32.9656 49.2031 30.736C49.2031 28.5063 48.0516 28.07 41.8227 28.07H36.1172V22.8351C36.1172 19.9753 35.9078 17.4063 35.6984 17.1155C35.2273 16.3884 33.4477 15.9522 32.4531 16.2915Z" fill="#9D9D9D"/>
</svg>
